<svg width="83" height="80" viewBox="0 0 83 80" fill="none" xmlns="http://www.w3.org/2000/svg">
<path d="M29.1107 72C40.7693 72 50.2205 62.5489 50.2205 50.8903C50.2205 39.2317 40.7693 29.7805 29.1107 29.7805C17.4521 29.7805 8.00098 39.2317 8.00098 50.8903C8.00098 62.5489 17.4521 72 29.1107 72Z" fill="#30D6D9"/>
<path d="M47.6084 34.0758C54.8091 34.0758 60.6465 28.2384 60.6465 21.0377C60.6465 13.837 54.8091 7.99963 47.6084 7.99963C40.4077 7.99963 34.5703 13.837 34.5703 21.0377C34.5703 28.2384 40.4077 34.0758 47.6084 34.0758Z" fill="#30D6D9"/>
<path d="M66.0572 40.5067C70.5108 40.5067 74.1212 36.8963 74.1212 32.4427C74.1212 27.989 70.5108 24.3787 66.0572 24.3787C61.6035 24.3787 57.9932 27.989 57.9932 32.4427C57.9932 36.8963 61.6035 40.5067 66.0572 40.5067Z" fill="#30D6D9"/>
<path d="M59.013 48.8268C61.7644 48.8268 63.9948 46.5964 63.9948 43.845C63.9948 41.0937 61.7644 38.8633 59.013 38.8633C56.2617 38.8633 54.0312 41.0937 54.0312 43.845C54.0312 46.5964 56.2617 48.8268 59.013 48.8268Z" fill="#30D6D9"/>
<path d="M51.4738 42.2604C53.1761 42.2604 54.5561 40.8805 54.5561 39.1782C54.5561 37.4759 53.1761 36.0959 51.4738 36.0959C49.7716 36.0959 48.3916 37.4759 48.3916 39.1782C48.3916 40.8805 49.7716 42.2604 51.4738 42.2604Z" fill="#30D6D9"/>
</svg>
